<svg width="40" height="40" viewBox="0 0 40 40" fill="none" xmlns="http://www.w3.org/2000/svg">
<circle cx="20" cy="20" r="20" fill="white"/>
<path fill-rule="evenodd" clip-rule="evenodd" d="M15.6085 14.0687C14.6195 15.3723 14.125 17.3165 14.125 19.9015C14.125 22.4865 14.6138 24.4306 15.5917 25.7345C16.5806 27.0381 18.0473 27.6901 19.9917 27.6901C23.8578 27.6901 25.8134 25.1612 25.8583 20.1038H31C30.9663 23.8238 30.0168 26.6952 28.1511 28.7183C26.2518 30.7753 23.5319 31.8035 19.9917 31.8035C16.4514 31.8035 13.7315 30.7753 11.8321 28.7183C9.94413 26.6617 9 23.7115 9 19.8677C9 16.0241 9.9498 13.0909 11.8491 11.0678C13.49 9.31449 15.749 8.3198 18.6261 8.08398V12.231C17.356 12.4783 16.3504 13.0909 15.6085 14.0687Z" fill="#308BBA"/>
<path fill-rule="evenodd" clip-rule="evenodd" d="M27.4798 17.9129V13.6477L20.7026 20.914L18.0391 18.6211L24.8838 11.2707L21.1748 11.3211V8H30.7336L30.7168 17.9129H27.4798Z" fill="#308BBA"/>
</svg>
