<?xml version="1.0" standalone="no"?>
<!DOCTYPE svg PUBLIC "-//W3C//DTD SVG 20010904//EN"
 "http://www.w3.org/TR/2001/REC-SVG-20010904/DTD/svg10.dtd">
<svg version="1.0" xmlns="http://www.w3.org/2000/svg"
 width="3055.000000pt" height="1090.000000pt" viewBox="0 0 3055.000000 1090.000000"
 preserveAspectRatio="xMidYMid meet">

<g transform="translate(0.000000,1090.000000) scale(0.100000,-0.100000)"
fill="#000000" stroke="none">
<path d="M22280 5450 l0 -5410 4100 0 4100 0 0 3815 0 3815 -1595 0 -1595 0 0
1595 0 1595 -2505 0 -2505 0 0 -5410z m6854 1540 c110 -28 190 -74 271 -155
121 -121 175 -259 175 -450 0 -190 -53 -329 -175 -451 -120 -122 -259 -177
-445 -177 -125 0 -204 18 -310 70 -330 166 -424 647 -187 958 74 97 201 180
325 209 88 22 254 20 346 -4z m-3049 -597 c30 -77 1859 -4942 1862 -4955 5
-17 -27 -18 -569 -18 l-574 0 -185 508 -185 507 -981 3 -981 2 -15 -42 c-13
-38 -314 -881 -339 -950 l-10 -28 -574 0 c-316 0 -574 2 -574 4 0 3 408 1106
906 2453 498 1346 913 2467 921 2491 l15 42 638 0 c598 0 638 -1 645 -17z
m3455 -3143 l0 -1860 -590 0 -590 0 0 1860 0 1860 590 0 590 0 0 -1860z"/>
<path d="M25436 5140 c-3 -8 -142 -397 -309 -865 l-303 -850 620 -3 c340 -1
621 0 623 2 3 2 -137 393 -311 868 -173 474 -317 856 -320 848z"/>
<path d="M27712 9458 l3 -1393 1400 -3 1400 -2 -1395 1395 c-767 767 -1398
1395 -1403 1395 -4 0 -6 -627 -5 -1392z"/>
<path d="M40 3905 l0 -2525 620 0 620 0 0 875 0 875 908 2 907 3 3 508 2 507
-910 0 -910 0 0 640 0 640 1185 0 1185 0 0 500 0 500 -1805 0 -1805 0 0 -2525z"/>
<path d="M10485 5164 c-387 -60 -731 -278 -936 -594 l-34 -53 -5 304 -5 304
-602 3 -603 2 0 -1875 0 -1875 605 0 604 0 3 932 3 933 23 70 c80 236 225 402
447 511 61 29 153 64 206 78 123 31 318 50 437 42 l92 -6 0 620 0 620 -72 -1
c-40 -1 -113 -7 -163 -15z"/>
<path d="M13570 5170 c-410 -56 -740 -252 -957 -567 l-53 -76 -2 299 -3 299
-597 3 -598 2 0 -1875 0 -1875 600 0 599 0 3 1028 3 1027 27 97 c31 112 98
248 163 330 126 160 336 258 552 258 119 0 207 -21 303 -70 139 -73 244 -209
296 -385 17 -56 19 -139 21 -1172 l4 -1113 604 0 605 0 0 950 c0 608 4 985 11
1047 50 450 337 743 729 743 251 0 448 -116 549 -321 81 -167 75 -69 79 -1311
l3 -1108 599 0 600 0 0 1266 c0 1388 1 1364 -60 1585 -37 136 -93 266 -161
375 -63 100 -202 252 -297 324 -133 100 -325 183 -522 226 -68 15 -128 19
-295 19 -237 0 -338 -14 -512 -70 -209 -69 -359 -161 -513 -315 -115 -115
-185 -210 -259 -353 l-49 -93 -37 88 c-20 48 -68 135 -106 192 -184 279 -442
451 -799 531 -87 20 -425 29 -530 15z"/>
<path d="M19395 5164 c-277 -37 -544 -131 -728 -256 -95 -64 -232 -203 -296
-298 -235 -352 -238 -871 -7 -1194 98 -137 280 -280 471 -371 138 -65 256
-109 472 -176 381 -117 502 -158 589 -201 155 -77 216 -150 215 -260 0 -106
-69 -185 -196 -224 -79 -25 -261 -29 -395 -10 -289 43 -630 156 -941 312
l-106 53 -106 -332 c-147 -461 -161 -506 -155 -512 16 -16 279 -122 420 -170
242 -80 452 -132 708 -172 163 -26 569 -25 725 0 474 79 818 267 1014 556 144
212 208 505 170 777 -57 412 -342 696 -900 898 -70 25 -232 77 -362 116 -285
85 -389 121 -487 169 -96 46 -174 120 -190 179 -24 91 20 198 102 246 80 46
156 59 313 53 265 -12 584 -98 978 -264 60 -25 112 -42 116 -37 7 8 124 371
242 747 l27 88 -55 24 c-247 110 -715 225 -1068 265 -125 14 -450 11 -570 -6z"/>
<path d="M5450 5156 c-372 -48 -731 -179 -990 -363 -122 -87 -317 -282 -402
-403 -209 -296 -319 -642 -335 -1055 -22 -602 196 -1151 597 -1501 275 -241
598 -388 1010 -460 196 -35 538 -44 744 -20 792 92 1373 514 1619 1176 212
570 151 1282 -151 1768 -286 461 -738 740 -1372 848 -130 22 -575 28 -720 10z
m420 -946 c344 -42 597 -276 697 -646 25 -93 27 -112 27 -319 0 -208 -2 -226
-27 -320 -73 -270 -218 -461 -432 -568 -139 -70 -299 -96 -458 -77 -122 15
-185 33 -289 87 -256 131 -415 403 -448 764 -34 371 89 718 323 909 111 92
283 160 432 173 80 7 92 7 175 -3z"/>
</g>
</svg>
