<svg width="57" height="57" viewBox="0 0 57 57" fill="none" xmlns="http://www.w3.org/2000/svg">
<path d="M25.175 32.775L20.0687 27.6687C19.6333 27.2333 19.0792 27.0156 18.4062 27.0156C17.7333 27.0156 17.1792 27.2333 16.7438 27.6687C16.3083 28.1042 16.0906 28.6583 16.0906 29.3313C16.0906 30.0042 16.3083 30.5583 16.7438 30.9937L23.5125 37.7625C23.9875 38.2375 24.5417 38.475 25.175 38.475C25.8083 38.475 26.3625 38.2375 26.8375 37.7625L40.2563 24.3438C40.6917 23.9083 40.9094 23.3542 40.9094 22.6812C40.9094 22.0083 40.6917 21.4542 40.2563 21.0188C39.8208 20.5833 39.2667 20.3656 38.5938 20.3656C37.9208 20.3656 37.3667 20.5833 36.9313 21.0188L25.175 32.775ZM28.5 52.25C25.2146 52.25 22.1271 51.6262 19.2375 50.3785C16.3479 49.1308 13.8344 47.439 11.6969 45.3031C9.55938 43.1656 7.86758 40.6521 6.6215 37.7625C5.37542 34.8729 4.75158 31.7854 4.75 28.5C4.75 25.2146 5.37383 22.1271 6.6215 19.2375C7.86917 16.3479 9.56096 13.8344 11.6969 11.6969C13.8344 9.55938 16.3479 7.86758 19.2375 6.6215C22.1271 5.37542 25.2146 4.75158 28.5 4.75C31.7854 4.75 34.8729 5.37383 37.7625 6.6215C40.6521 7.86917 43.1656 9.56096 45.3031 11.6969C47.4406 13.8344 49.1332 16.3479 50.3809 19.2375C51.6285 22.1271 52.2516 25.2146 52.25 28.5C52.25 31.7854 51.6262 34.8729 50.3785 37.7625C49.1308 40.6521 47.439 43.1656 45.3031 45.3031C43.1656 47.4406 40.6521 49.1332 37.7625 50.3809C34.8729 51.6285 31.7854 52.2516 28.5 52.25ZM28.5 47.5C33.8042 47.5 38.2969 45.6594 41.9781 41.9781C45.6594 38.2969 47.5 33.8042 47.5 28.5C47.5 23.1958 45.6594 18.7031 41.9781 15.0219C38.2969 11.3406 33.8042 9.5 28.5 9.5C23.1958 9.5 18.7031 11.3406 15.0219 15.0219C11.3406 18.7031 9.5 23.1958 9.5 28.5C9.5 33.8042 11.3406 38.2969 15.0219 41.9781C18.7031 45.6594 23.1958 47.5 28.5 47.5Z" fill="#0CA47E"/>
</svg>
